<svg xmlns="http://www.w3.org/2000/svg" xmlns:xlink="http://www.w3.org/1999/xlink" viewBox="0 0 906.09 447.99"><defs>


  <style>
    .cls-1 {
      fill: black;
    },
    .cls-17{
      fill: red;
    }
    .cls-2 {fill:#d0d2d3;}.cls-3{fill:#bbbdbf;}.cls-4{fill:blue;}.cls-5{fill:#6d6e70;}.cls-6{fill:#929497;}.cls-7{fill:#58595b;}.cls-8{fill:#404041;}.cls-9{fill:url(#linear-gradient);}.cls-10{fill:url(#linear-gradient-2);}.cls-11{fill:url(#linear-gradient-3);}.cls-12,.cls-13,.cls-20{fill:none;}.cls-12,.cls-14,.cls-15,.cls-16,.cls-18,.cls-19,.cls-22,.cls-23{stroke:#231f20;}.cls-12,.cls-14,.cls-15,.cls-16,.cls-18,.cls-19,.cls-20,.cls-22,.cls-23{stroke-miterlimit:10;}.cls-12,.cls-14,.cls-15,.cls-16,.cls-18,.cls-19{stroke-width:0.61px;}.cls-14{fill:url(#linear-gradient-4);}.cls-15{fill:url(#linear-gradient-5);}.cls-16{fill:url(#linear-gradient-6);}.cls-17{fill-rule:evenodd;}.cls-18{fill:url(#linear-gradient-7);}.cls-19{fill:url(#linear-gradient-8);}.cls-20{stroke:#be1e2d;stroke-width:0.15px;}.cls-21{fill:url(#linear-gradient-9);}.cls-22,.cls-23{stroke-width:0.5px;}.cls-22{fill:url(#linear-gradient-10);}.cls-23{fill:url(#linear-gradient-11);}</style>

  <linearGradient id="linear-gradient" x1="55.17" y1="509.52" x2="331.61" y2="509.52" gradientUnits="userSpaceOnUse"><stop offset="0" stop-color="#fff"/><stop offset="1"/></linearGradient><linearGradient id="linear-gradient-2" x1="707" y1="435.53" x2="707.07" y2="409.61" xlink:href="#linear-gradient"/><linearGradient id="linear-gradient-3" x1="945.41" y1="508.86" x2="807.86" y2="508.86" xlink:href="#linear-gradient"/><linearGradient id="linear-gradient-4" x1="371.07" y1="436.71" x2="370.09" y2="478.09" xlink:href="#linear-gradient"/><linearGradient id="linear-gradient-5" x1="392.77" y1="434" x2="392.74" y2="473.39" xlink:href="#linear-gradient"/><linearGradient id="linear-gradient-6" x1="507.4" y1="464.86" x2="507.67" y2="451.9" gradientUnits="userSpaceOnUse"><stop offset="0" stop-color="#fff"/><stop offset="0.16" stop-color="#fcfcfc"/><stop offset="0.28" stop-color="#f1f1f1"/><stop offset="0.41" stop-color="#e0e0e0"/><stop offset="0.52" stop-color="#c8c8c8"/><stop offset="0.63" stop-color="#a8a8a8"/><stop offset="0.74" stop-color="#818181"/><stop offset="0.84" stop-color="#535353"/><stop offset="0.95" stop-color="#1f1f1f"/><stop offset="1"/></linearGradient><linearGradient id="linear-gradient-7" x1="533.55" y1="127.28" x2="533.55" y2="127.28" xlink:href="#linear-gradient-6"/><linearGradient id="linear-gradient-8" x1="360.64" y1="232.33" x2="378.86" y2="232.33" xlink:href="#linear-gradient-6"/><linearGradient id="linear-gradient-9" x1="327.2" y1="439.9" x2="330.38" y2="439.9" xlink:href="#linear-gradient"/><linearGradient id="linear-gradient-10" x1="859.74" y1="467.15" x2="859.68" y2="449.55" xlink:href="#linear-gradient-6"/><linearGradient id="linear-gradient-11" x1="687.1" y1="513.41" x2="685.43" y2="428.9" xlink:href="#linear-gradient-6"/></defs><title>airs_svg</title>

  <path id="tab_liner" data-name="tab liner" class="cls-1" d="M614.17,88.77c2.56,3.64,18.13,26.74,24.34,43.26,3.64,9.38,10.06,20.52,1.56,36.43-2.9,4.83-3,4.65-.76,6.95s14.65,10.84,15.2,9.78,4-8.76,4.73-11.21,7.56-25.72,1-42.08c-4.74-13.3-17.54-31.47-17.54-31.47L632.18,83s-3.12-6.85-7.62-5.64c-3.42.2-9.6-1.09-12.88,6.42.09,2.47,2.49,5,2.49,5" transform="translate(-44.96 -77.05)"/>


  <path id="logo_patch" data-name="logo patch" class="cls-2" d="M555.32,111.79c7.25-4.12,28.89-17.09,39-19.92,14.12-5.82,15.38-6.32,15.38-6.32s1.61-2.21,4.47,3.22c5.67,8.29,9.84,14.94,9.84,14.94s.72.87-2.23,1.83-33.6,10.69-33.6,10.69l-11.29,3.12-11.77,5.47L541.8,138.05s-1.11,1.85-3-2.57l-4.74-9s-2.05-2.39,2.51-4.91S555.32,111.79,555.32,111.79Z" transform="translate(-44.96 -77.05)"/>


  <path id="mid_patch_2" data-name="mid patch 2" class="cls-3" d="M291,267.41c-6,5.81-18.33,16.75-16.52,25.94,1.09,4,4.51,10.8,14.71,9.83s31.38-4.83,34.38-5.59,26.24-5.31,43.83-4.95c13.25.7,23.79.25,41,5.07,14.57,4.36,24,6.59,39.14,15.43s23.68,15.2,28.27,19.62,14,14.79,17.48,20.31a38.53,38.53,0,0,0,8.43.47l30.49-3.34,74.92-8.38L686,333.23s.62-1.36,1.12-2.77,6.92-13.08,15.54-22.82c9.46-9.9,11.89-10.68,11.89-10.68l-27.13,6.48s-66.68,14.71-69.72,14.68c-7,1.32-32.87,5.83-35,6.22s-36.24,5-59.94-.21c-5.07-2.59-25.33-9.94-24.3-39.21.9-16.28,11.77-30.24,34.3-49.1a148.41,148.41,0,0,1,19.36-12.24s.06,21,.16,22.42,0,31.09,26.19,31.5c25.47,1.38,75.61-7.57,75.61-7.57l61.08-7.62s-34-5.41-39.56-7.62c-12.87-3.62-50.46-15.11-77.38-29.47s-80.66-48.95-82.84-50.68c-4.28,1.59-3.75,2.83-3.75,2.83s4.18,21.73,3.05,25.82c-1.81.24-12.86,3.09-14.84,2.28S491.59,193,490,188.22c-4.22,2.54-14.4,4-15.61,4.2s-1.45.49.78,6.86,4.76,13.8,4.93,14.4,2.65,5-4.25,5.21l-2.67-.35-5.61,2.84-2.32.4-1.95,0-1.79,0-6-12.53s-3.12-11.11-3.48-12.59l-.8-2.17s1.63-2.58-6.39-1.83c-3.95.87-8.81.52-8.43,3.57a62.14,62.14,0,0,0,2.15,8.47,32.9,32.9,0,0,1-.51,11.66c-.72,4.73-1,6.64-3.95,7-.76-.1-1.67-1.64-3.06,1.48-1.33.59-7.56,2.17-11.8-4.68a133.14,133.14,0,0,1-5.43-15.46s-.34-1.6-5.77,2c0,0-10.64,5.69-10.48,7.83s3.38,20.33,3.57,21.66,1.29,9.6.51,10.23-1.16,2.17-11.3,2.43l-1.61.66s-1.19,2.5-6.33-3.74c-2.33-3.88-4.45-10.9-3.92-16.27-4.72,2.33-5.85,2.79-5.85,2.79l-11.91,4.16L360.9,258a17.06,17.06,0,0,1-8,6.59c-2.65.6-6.16,1.39-10.31-4.85-1.94-3.13-4.41-8-2.22-16.65-.46-.92-.53-3.18-21.8,4.64-8.36,4.13-9.15,3.21-8.4,5.07l3.77,9.3s1.45,6.72-.11,9.17-1.49,5.83-11.37,6.89c-5.57.27-8.68,1.58-11.33-9Z" transform="translate(-44.96 -77.05)"/>


  <path id="rubber_sole" data-name="rubber sole" class="cls-1" d="M46.29,404l.39,17.5L50,425.32a8,8,0,0,1,.71,4.85c.75,3.89-.63,9.57,17.85,22.06l2.65.79,1.13.61h1.38l6.63,6.29s12.73,8.48,32.61,14.18L115,474l.74-2.18s3.23-2.59,3.23.25v5.41L151.12,487s1.7-8.53,4.82,1.59c8.29,3,27.07,7.24,27.07,7.24s1-3.31,4,1.44c2,1.18,16.81,5,16.81,5s3.71,2.39,13.52.93c6.23-.66,11.8-2.38,14.18-1.72,4.11-.11,5.92-1.52,8.4,4.47,1.38,2.85.64,3.31,6.19,3.93s29.08,1,29.08,1L297,507.11h4.07l.81,6.75,49.6,1h38.67l1.67-5.37,2.57,5.8,9.54.14,1.41-5.94,2.48,5.94h33.67l2.39-5,2.11,5h12.2l1.77-5.35,2.21,5.35h80.85l3.45-7.14s1.22,1,1.47,7.14h8.34l2.12-7.14s1.72.12,1.59,7.14h22.8l3.51-5.17s.33-.13,2.06,5.17h13l2.91-5.17s.53-1.46,2.65,5.17c6.1-.12,48.43-1.55,48.43-1.55l2.74-6.45s1.5-.71,2.74,6.63c12.51-.38,18-.62,18-.62l3.1-5.75s.39-2.29,2.91,4.91c16-.45,23.42-.45,23.42-.45l2.65-5.43s.09-2.48,2.92,5.43l22.58-.14,116.91-4.4s23.33-1.8,25.54-2.11a150.29,150.29,0,0,0,44.44-31.3c1.9-2.91,2.65-5.49.27-10.23-5.83,5.33-10.87,11-32.34,20.7-11.13,4.72-21.09,7.78-48,8-37.11,1.79-83.5,3.14-83.5,3.14l-50.24,1.37L625.64,499l-4.67.06-29.26-1.49s-39.9-2.15-97.69.82l-65.35,1.94-2.9.05s-34.73,1.95-37.12,2-57.41.4-62.31-1.23c-4.11,0-73.11-3.77-75.87-4s-44.94-7.14-47.14-7.67c-4-.8-40.76-8.5-44-10.08-16.57-4.77-36.6-10.94-51.43-17s-32.22-16-34.86-18.69a53.94,53.94,0,0,1-18.24-24.22C50.12,407.68,49,404.18,48.93,404s-.24-2.4-.24-2.4A2.51,2.51,0,0,0,46.29,404Z" transform="translate(-44.96 -77.05)"/>


  <path id="eyelet_patch" data-name="eyelet patch" class="cls-1" d="M545.89,195c12,8,35.48,21.57,40.17,24s28.83,14.42,30.83,14.6c2.39-1.39,21.54-15.44,23.28-16.71s15.49-10.76,15.57-11.43c-3.08-2.44-22.54-18.7-32.09-28.86a52.32,52.32,0,0,0-10.07-8.48c-2.21-1.51-29.25-21.21-47.28-20.42-8.45,1.25-11.44,1.76-9.92,2.69s3.94,1.35,5.87,4.19c2.4,2.4,4.92,5.57,7.09,6.9s3.52,4.09,4.28,6.28l1.93,1.08s6.59,2.45,7.11,11.42l5.46,1.63,2.68.55s21,2.12,18.85,13.6-13,19.62-23.37,12.21c-3.26-3.52-6-5.88-8.43-14.79-5.09.16-17,3.46-22.23-13.94-6.16-5.75-16.28-14.12-18.21-15.72s-5.39-5-11.09.12-10.45,9.13-10.45,9.13-3.74.48,3.77,4.31C527.27,183,545.89,195,545.89,195Z" transform="translate(-44.96 -77.05)"/>


  <path id="back_patch" data-name="back patch" class="cls-4" d="M882.17,226.67c-10.54,2.5-57.67,14.17-61.12,15.31s-43.31,15.92-54.95,21.93-32.16,18.15-37,21.71-28,21.11-35.86,34.4c-6.26,10.77-8,12.68-6.46,13.13,4.65-.52,52.37-5.43,53.7-5.56L773.84,324c.32-.05,49.71-5.09,50.51-5.15s55.88-1.83,57.82-1.76,16.58-1.95,26.21,11.24,10,13.9,10,13.9l9.47,18.14s.55-7,.23-9.15-4.1-27.31-8-53-3.74-27.48-3.91-31.73-.62-26.16-.64-26.76.34-3.11-10.14-10.31c-7.47-3.81-9.46-6.67-19.92-3.55Z" transform="translate(-44.96 -77.05)"/>


  <path id="sole_1" data-name="sole 1" class="cls-5" d="M924.52,443.16c.3-9.49.47-15.71.47-15.71s3.27-15.32-8.26-20.85c-6,0-17.23,1.75-25.45-1.43-3.45-2.12-32-21.81-52.25-19.06-13.5-.26-26.36,0-61.75-.26-12.19.63-45.08,1.5-49.31,1.9s-39.9.59-72.37,2.44A648.91,648.91,0,0,0,585,400.53c-17,3.65-75.82,13.92-75.82,13.92l-102.2,20.81S369,444.94,302.75,446.79s-115.28-.92-121.56-.79c-12.47.25-69-2.12-81-3.45s-23.28-2.77-32.88-6.89c-3.72-1.6-4.8-2-3.72,0,4.1,7.41,15.78,13.52,27.32,19s15.37,7.15,22.93,10.07,36.54,14.13,70.18,20.1c0,0,4.91,1.32,18.13,3.87s24.57,4.73,36.21,5.94,69.67,6.71,91.8,6.67,51.56,1.93,94.05-2c8.55-.28,63-2,82.23-2.48s87.37-1.34,109.11,1.18c7,.4,7.55.4,7.95.4s79.53-1.46,88.94-1.86c20.68-.66,141.22-4,150.19-4.5,4-.4,22.53,1.19,60.44-26.65,1.2-1.92,3.16-8.85.95-11.84S919.72,448.14,924.52,443.16ZM756.44,473.24c-60.88,0-136.09,3.58-139,4.29-5.75,0-9.79-1.16-12.53-3h0c-10.22-6.94-2.12-23.68,4.66-27.07,0,0,11.51-.62,28.54-1.39,33.24-1.48,87.51-3.49,118.29-2.4C775.07,445.4,779.37,470.37,756.44,473.24Z" transform="translate(-44.96 -77.05)"/>


  <path id="ankle_patch_2" data-name="ankle patch 2" class="cls-4" d="M548,144.15c8.07-4.21,29.22-5.79,44.5-.23,12.42,5,29.82,16.49,32.08,18.29s17.06,14.87,18.42,15.84c0,0,11.16,6.29,16.33,14.24,3.52,2.55,29.17,24.38,43.88,29.16,9.9,4.22,19,9.89,38.69,7.43s34.45-1.73,57.59-15.78c11.11-7.42,18.94-12.67,33.5-29.39l11.8-13.65s7.08-7.07,16.68-5.57c9.2,1.43,16.65,2.92,28.65,11.6l1.61,1.18c6.44,5,8,4.42,8.38,10.78-1.61.9-.33,1.63-4.75-1.62s-18.11-12.69-23.22-12.56c-3.16-1.2-7.85-3.4-14.79.654.82,4.72-21.91,24.08-23.08,25.23s-14.72,13.45-22.79,18-26.21,13.56-33.54,14.95-8.27,3.06-25.33,5.37a103.11,103.11,0,0,1-50.13-5.83c-15.38-5.9-32-15.34-42.2-23.34S631,183.86,631,183.86s-12.41-12.79-15.59-14.47-22-16-34.66-18.87-16.77-5.23-24.4-.12C556,150.55,548,144.15,548,144.15Z" transform="translate(-44.96 -77.05)"/>


  <path id="mid_patch" data-name="mid patch" class="cls-6" d="M270.05,287.94c-9.54,5.06-17.14,8.82-17.14,8.82s-6.14,3.36-9.63,3.39l-6.39,1.13s-7,.56-7.67,3c0,2.43-1.1,4.95,3.54,8.66,3.44,2.38,3.58,5,22.81,6.38,14.84,1,30.52,1.78,45.48,5.72l9.12,2.74s14.31,4.91,23.59,13c6.9,6.35,12.33,13,13.92,17,1.06-1.33,2.4-6.14,3.39-13.68s7.87-14.65,11-17.13,12.63-7,25.84-2c16.79,5,36.17,10.41,36.17,10.41l.48-.87-40.49-40.88s-22.62-1.46-29.76-.25-27,2.82-32.84,4.6-33,7.89-38,4.63c-4.17-1.67-11.35-3-8.2-16l-.25-1Z" transform="translate(-44.96 -77.05)"/>


  <path id="small_mid_patch" data-name="small mid patch" class="cls-1" d="M384,293.43l41.82,42.35L453,343.63c2.68.77,28.91,8.91,31.79,9.15l7.62.65s3.07,1-5.05-7.91-22-24.24-41.23-33.13c-16.39-7.79-24.86-13.13-56-18.17l-5.46-.39" transform="translate(-44.96 -77.05)"/>

  <path id="toe_patch" data-name="toe patch" class="cls-7" d="M227.72,311.09c-9,.77-36.93,6-53.92,11.16s-27.2,7.65-35.05,10.05S97.2,345.46,97.2,345.46s-18.41,5-16.39,8.39c1.36,1.12,6.47,5,23.5,5.33s34.22.19,66.16-1.79,67.13-3.16,68.19-3.16a168.7,168.7,0,0,1,33.1,2.33c4.7,1,9.89-.14,26.88,12.16,5.26,3.77,13,7.94,19.74,8.31s20.47.7,26.44-11.43l3.12-7.06s-7.57-14.26-20.48-22-30.17-13.23-47.29-15.25-24.6-2-24.6-2-14.66.78-24.34-6.91a3.66,3.66,0,0,0-2.78-1.46Z" transform="translate(-44.96 -77.05)"/>

  <path id="side_patch_bottom_" data-name="side patch (bottom)" class="cls-3" d="M395.13,437.38c-2.65,1.59-63.86,8.88-63.86,8.88l-90.43,1.59s-138.65-4.48-143.44-4.93-21.85-3.15-29.54-7S56,421.77,56,421.77s-4.2-11.16-6.18-16.86-1.15-3.34-.72-9.92,6.36-19.93,10.44-28.51,20.29-15.82,20.29-15.82l.47,2.7c9.68,10.88,82.88,4.48,82.88,4.48l69.43-4.3s44.27,0,57.62,9.56c26.87,21.68,45.07,11.7,49.79,8.84s9.54-18,9.54-18-1.37-10.67,9.64-24.61c13-16.52,44.16,0,44.16,0l81.42,23.45c6.86,2,22.47,1.16,22.47,1.16l60.17-7.63S692.59,332,753.88,326.22c60.25-7.87,101.72-9,128.51-9.13s29.12,16.55,39.51,31.4c11.4,15.64,2.58,33,.66,39.26S916,406.6,916,406.6l-18.33.38a14.76,14.76,0,0,1-6.09-2.2C853.67,380.92,839,386.11,831.54,386s-171.79,3.72-178.82,3.88c-4.94.11-18.54,3.51-47.77,8s-37.45,5.1-122.9,21.35c-107.66,23.69-128.22,24-146.87,25.52s-107,1.68-110.77,1.62S92,442.29,76.33,438,59.74,428.76,56,421.77" transform="translate(-44.96 -77.05)"/>

  <path id="ankle_patch" data-name="ankle patch" class="cls-1" d="M780.28,257.33c15.54-6.41,46.86-17.32,71.86-23.35s38.18-8.73,40.82-9.44,3.46.23,7.85,1.86l2.11,1.43c1.22,1,4,3.18,5.12,2.4s.26-3.28-.19-5c-1.85-7-2.65-14.17-4.25-21.2A68.94,68.94,0,0,0,900,192c-.48-1.15-.9-2.09-1.2-2.71-14-10.61-26-16.79-31.39-16.81s-8.82.62-11.61,3.67-11.68,13.11-12.59,14.13-19.86,25.49-45.43,34.83c-23.18,12.16-69.46,21-103.21,4.59-28-13.64-28.81-16.63-32.73-19.55s-5.12-5.38-7.83-3.39L618,233.2c-1.07.78,3.62,2.83,5.38,3.57s28.48,10.93,47,16.52c15.35,4,38.44,8.35,46.27,8.68s15.24-.4,24.39-1.23S780.28,257.33,780.28,257.33Z" transform="translate(-44.96 -77.05)"/>

  <path id="tongue" class="cls-2" d="M525.66,132.27c2.78-1.27,6.54-4.13,6.75-5s.08-4.16,1.74-.64,5.5,10.2,5.5,10.2.19,3.39,5.58-.8c9.43-5.43,24.62-13.71,25.9-14.33s6.74-2.51,8.48-3,20.83-6.36,20.83-6.36l19.1-6.09s4.22-3.08,6,0,15.86,28.76,17.66,39c1.53,7.36,1.35,15.87-4.53,25.73-1.5,2.26-1.32,2.67-7.24-3.08s-28-22.31-42.28-25.1-23.32-5.59-39.81.65c-2,.36-3.05-.15-12.81-4.57S522.7,133.62,525.66,132.27Z" transform="translate(-44.96 -77.05)"/>


  <path id="swoosh" class="cls-7" d="M718.33,293.78c6.78-5.28,27.67-21.47,49.47-30.7l10.72-5s-.34-.7-17.11.79-60,5.7-60,5.7l-51.23,5.8-28.27,4.07s-38.34,5.66-47.35,1.44c-6.45-1.49-18.23-5.57-20.38-17.45s-2.33-29.28-2.33-29.28l0-4.83s-19.9,9.25-30.77,21.21-15.27,15.54-20.51,29.32-.85,34,11.58,43.25c6.86,4.73,16.66,8.67,33.18,8.48s27.31-1,29.27-1.25,30.64-4.88,35.78-5.86,38.39-7.7,38.39-7.7l60.4-13.55s5.38-1.26,6.37-2.1Z" transform="translate(-44.96 -77.05)"/>

  <path class="cls-8" d="M600.94,184.76c-5.16-1.53-14.71-3.43-14.71-3.43l-2.6-.77s-1.45.2-1.43-2.93c-1.42-3.93-3-8.42-7.84-9.09-.36.6-.44.43,1.68,5,1.46,3.13,1.74,3.73,1.78,3.8l0,0s1.7,1.78-.35,1.76-7.44-.13-8.36,3.23c.44,1.49,1.18,1.67-.74,1.51s-6.83-.87-9.77-2.88-2.74-2.39-2.58-.42.61,2.05.61,2.05c.95,2.27,2.72,9.91,15.8,11.1,5.83,0,5.16-.85,5.86,1.18s3.42,9.41,6.38,11.91,7.17,5.6,12.24,3.74c2-.23,11.06-3,12.82-14.58C609.7,192.6,608.35,187.52,600.94,184.76Zm-4.75,20.71c-9.85-7.47-13.538.63-13.53-8.63l7.43-8.62s8.54,1.81,12.2,4.88A25.92,25.92,0,0,1,596.19,205.47Z" transform="translate(-44.96 -77.05)"/>

  <g id="Layer_4" data-name="Layer 4">
    <path class="cls-1" d="M291.32,266.76s-5.22-1.84-3.39-4.21a31.29,31.29,0,0,1,14.9-11.63c9.58-3.85,6.87.64,6.87.64l4.45,11c.65,7.45-.32,11.4-5.22,13.6-9.46,3.11-12.72,2.11-15,0a50.69,50.69,0,0,1-2.61-6.37Z" transform="translate(-44.96 -77.05)"/><path class="cls-1" d="M370.3,218.82a6.6,6.6,0,0,0-3.88,1.16c-2.29,1.37-4.9,3.58-5.55,13.7s0,15.33,0,24.78c-5.87,7.83-12.07,6.81-12.07,6.81s-5.54-2.8-6.52-6.15c-4.89-8.16-1.65-16.8-1.65-16.8s-5.08-12.71,16.78-20.06C366.42,220,370.3,218.82,370.3,218.82Z" transform="translate(-44.96 -77.05)"/>
    <path class="cls-1" d="M413.12,199.61s-2.4-8.67,1.75-11.57,16.48-10.85,18.47-10.85,8.4,4.2,8.4,4.2c-2-1.39-4.23,1.39-4.55,2.7s-2,13.37.65,18.59,0,11.74,0,15.79-3.59,5.71-5.54,4.11c-2,3.58-5.55,2.13-8.48,2.13-8.16-4.06-10.7-25.1-10.7-25.1C408,199.47,402,205,397.72,211c-1.3,7,4.24,22.36,4.24,34.75-1.3,3.26-12.06,2.61-12.06,2.61s-2.61,3.31-4.9,0c-11.09-8.48-3.85-32.75-3.85-32.75S380,208.4,385,204.52s17.95-9,21.42-8A28.09,28.09,0,0,1,413.12,199.61Z" transform="translate(-44.96 -77.05)"/>
    <path class="cls-1" d="M471.88,164.05c-2.65,1.56-3,10.71-3,13.38s5.22,17.22,5.55,19.18,5.54,15.33,6.19,18.93-4.56,3.57-6.52,3.06-6.52,3.78-8.81,3.12-2.28,1-3.74,0-1.15-3.26-4.74-9.87-4.24-14.59-5.54-18.18-3.15-16.24-3.15-16.24,1.49-7.6,4.91-9,14.15-9.48,16.14-9S471.88,164.05,471.88,164.05Z" transform="translate(-44.96 -77.05)"/><path class="cls-1" d="M505.38,138.88s.33,13.7.33,15.87,5.87,23.92,5.87,25.33,2.61,11,3.05,16.53,0,6.52,0,6.52a26.24,26.24,0,0,0-6.64,1,32.91,32.91,0,0,0-3.91,1.31h-5.74s-2.09-2.94-6.33-12.37-3.59-20.25-4.57-24.64-2.66-13.66-2.66-13.66a10.81,10.81,0,0,1,3.84-8.84C493,142.33,501.47,137.37,505.38,138.88Z" transform="translate(-44.96 -77.05)"/><path class="cls-1" d="M510.39,136c2-1,8.48-5.39,14.25-2.4a101.76,101.76,0,0,0,11.53,5L547.65,144l2.47,1.89s5.29,4.41,6.54,4.92a15.79,15.79,0,0,1,7.81,6.14,26,26,0,0,0,5.37,4.93c1.52,1,3.45,4.11,4.61,8.21,1.61,3.45,4.61,8.74,3.28,8.79s-8.28-.11-8.65,3.4c.29,1.79-.22,1.7-2.22,1.37a24.86,24.86,0,0,1-14.48-7.46c-7.93-6.57-16-13.51-16.61-14s-3.31-5.84-4-6.37S518,148.63,518,148.63s-6.78-3.53-8.28-6.94C508.32,137,508,137.18,510.39,136Z" transform="translate(-44.96 -77.05)"/></g>

   <g id="heel_logo" data-name="heel logo"><path class="cls-20" d="M913.22,281.52a34.89,34.89,0,0,0,.73,23.76c5.78,9.66,7.06-1.69,7.06-1.69l-1.25-7.92S913.55,304.2,913.22,281.52Z" transform="translate(-44.96 -77.05)"/><polygon class="cls-20" points="874.34 238.65 875.53 238.65 879.55 254.52 877.92 254.91 876.94 251.67 875.64 252.28 876.05 255.25 874.34 255.25 874.34 238.65"/><polygon class="cls-20" points="875.21 245.82 875.21 249.17 876.94 248.84 876.08 245.43 875.21 245.82"/><polyline  class="cls-20" points="871.84 203.65 871.3 208.38 868.99 208.38 871.06 197.42"/></g>

   <g id="tongue_logo" data-name="tongue logo"><polygon class="cls-20" points="506.62 37.63 515.15 34.22 515.84 34.74 508.67 40.14 507.98 39.11 510.66 37.63 509.92 37.18 506.62 38.43 506.62 37.63"/><polygon class="cls-20" points="511.49 36.23 513.28 35.54 512.18 36.91 511.49 36.23"/><polyline class="cls-20" points="516.43 35.27 517.26 35.54 515.5 38.21 518.09 38.21 518.09 39.71 513.28 40.14 511.49 43.86 510.26 42.93 511.49 40.54 509.12 41.22 508.91 40.49 513.5 38.62 516.56 35.31"/><path  class="cls-20" d="M583.6,96.59s6.94,1.69,9.79,2.58,7.05,4.54,7.05,4.54l-10-3.53c-4.61-1.62-11.34-.81-11.34-.81" transform="translate(-44.96 -77.05)"/><polygon class="cls-20" points="543.41 18.79 560.91 13.77 563.76 17.43 560.37 17.98 559.14 16.28 554.67 17.03 554.4 19.54 551.14 19.54 549.92 18.25 546.12 19.54 546.32 21.51 542.66 20.55 543.41 18.79"/><path class="cls-20" d="M610.25,94.07a4,4,0,0,1,3.68.61,4.3,4.3,0,0,1,1.62,2.95c0,4.06-5.3,2.52 5.3,2.52A3.3,3.3,0,0,1,608,97.24,3.43,3.43,0,0,1,610.25,94.07Z" transform="translate(-44.96 -77.05)"/><path class="cls-20" d="M608.72,97.59,613.1,95l1.41,1.64a1,1,0,0,1,.11.73,1,1,0,0,1-.41.55,1.11,1.11,0,0,1-.75.12,1.76,1.76,0,0,1-.9-.39l-2,2c-.22-.24-.44-.47-.67-.7l2.19-1.79-.4-.39-2.26,1.65Z" transform="translate(-44.96 -77.05)"/><path class="cls-20" d="M612.17,96.24l.85-.47.44.43.45.59c0,.06.14.5,0,.65s-.63,0-1-.46Z" transform="translate(-44.96 -77.05)"/></g>
   <!-- svg outline ends here -->

</svg>
